<mxfile host="app.diagrams.net" modified="2021-06-28T02:44:10.489Z" agent="5.0 (Macintosh; Intel Mac OS X 10_15_7) AppleWebKit/537.36 (KHTML, like Gecko) Chrome/91.0.4472.114 Safari/537.36" etag="AWT8g-JkkNpKY7Xxa2lW" version="14.8.1" type="github">
  <diagram id="t2nE1SQQTGv-MYvYG1Lx" name="Page-1">
    <mxGraphModel dx="946" dy="614" grid="1" gridSize="10" guides="1" tooltips="1" connect="1" arrows="1" fold="1" page="1" pageScale="1" pageWidth="827" pageHeight="1169" math="0" shadow="0">
      <root>
        <mxCell id="0" />
        <mxCell id="1" parent="0" />
        <mxCell id="bWQTvK5OEekbo9HFJ3d7-9" value="" style="edgeStyle=orthogonalEdgeStyle;rounded=0;orthogonalLoop=1;jettySize=auto;html=1;" edge="1" parent="1" source="bWQTvK5OEekbo9HFJ3d7-1" target="bWQTvK5OEekbo9HFJ3d7-8">
          <mxGeometry relative="1" as="geometry" />
        </mxCell>
        <mxCell id="bWQTvK5OEekbo9HFJ3d7-1" value="设备" style="rounded=1;whiteSpace=wrap;html=1;" vertex="1" parent="1">
          <mxGeometry y="80" width="120" height="60" as="geometry" />
        </mxCell>
        <mxCell id="bWQTvK5OEekbo9HFJ3d7-33" style="edgeStyle=orthogonalEdgeStyle;rounded=0;orthogonalLoop=1;jettySize=auto;html=1;" edge="1" parent="1" source="bWQTvK5OEekbo9HFJ3d7-2" target="bWQTvK5OEekbo9HFJ3d7-22">
          <mxGeometry relative="1" as="geometry" />
        </mxCell>
        <mxCell id="bWQTvK5OEekbo9HFJ3d7-2" value="设备服务" style="whiteSpace=wrap;html=1;rounded=1;" vertex="1" parent="1">
          <mxGeometry x="330" y="80" width="120" height="60" as="geometry" />
        </mxCell>
        <mxCell id="bWQTvK5OEekbo9HFJ3d7-28" style="edgeStyle=orthogonalEdgeStyle;rounded=0;orthogonalLoop=1;jettySize=auto;html=1;" edge="1" parent="1" source="bWQTvK5OEekbo9HFJ3d7-4">
          <mxGeometry relative="1" as="geometry">
            <mxPoint x="540" y="360" as="targetPoint" />
          </mxGeometry>
        </mxCell>
        <mxCell id="bWQTvK5OEekbo9HFJ3d7-31" style="edgeStyle=orthogonalEdgeStyle;rounded=0;orthogonalLoop=1;jettySize=auto;html=1;entryX=1;entryY=0.5;entryDx=0;entryDy=0;entryPerimeter=0;" edge="1" parent="1" source="bWQTvK5OEekbo9HFJ3d7-4" target="bWQTvK5OEekbo9HFJ3d7-18">
          <mxGeometry relative="1" as="geometry" />
        </mxCell>
        <mxCell id="bWQTvK5OEekbo9HFJ3d7-4" value="meta data" style="rounded=1;whiteSpace=wrap;html=1;" vertex="1" parent="1">
          <mxGeometry x="330" y="260" width="120" height="60" as="geometry" />
        </mxCell>
        <mxCell id="bWQTvK5OEekbo9HFJ3d7-27" style="edgeStyle=orthogonalEdgeStyle;rounded=0;orthogonalLoop=1;jettySize=auto;html=1;entryX=0;entryY=0.5;entryDx=0;entryDy=0;" edge="1" parent="1" source="bWQTvK5OEekbo9HFJ3d7-5" target="bWQTvK5OEekbo9HFJ3d7-22">
          <mxGeometry relative="1" as="geometry" />
        </mxCell>
        <mxCell id="bWQTvK5OEekbo9HFJ3d7-32" style="edgeStyle=orthogonalEdgeStyle;rounded=0;orthogonalLoop=1;jettySize=auto;html=1;" edge="1" parent="1" source="bWQTvK5OEekbo9HFJ3d7-5" target="bWQTvK5OEekbo9HFJ3d7-18">
          <mxGeometry relative="1" as="geometry" />
        </mxCell>
        <mxCell id="bWQTvK5OEekbo9HFJ3d7-5" value="core data" style="rounded=1;whiteSpace=wrap;html=1;" vertex="1" parent="1">
          <mxGeometry x="330" y="170" width="120" height="60" as="geometry" />
        </mxCell>
        <mxCell id="bWQTvK5OEekbo9HFJ3d7-6" value="kuiper" style="rounded=1;whiteSpace=wrap;html=1;" vertex="1" parent="1">
          <mxGeometry x="20" y="680" width="120" height="60" as="geometry" />
        </mxCell>
        <mxCell id="bWQTvK5OEekbo9HFJ3d7-10" value="" style="edgeStyle=orthogonalEdgeStyle;rounded=0;orthogonalLoop=1;jettySize=auto;html=1;" edge="1" parent="1" source="bWQTvK5OEekbo9HFJ3d7-8" target="bWQTvK5OEekbo9HFJ3d7-2">
          <mxGeometry relative="1" as="geometry" />
        </mxCell>
        <mxCell id="bWQTvK5OEekbo9HFJ3d7-8" value="device-sdk-go" style="ellipse;whiteSpace=wrap;html=1;" vertex="1" parent="1">
          <mxGeometry x="160" y="70" width="120" height="80" as="geometry" />
        </mxCell>
        <mxCell id="bWQTvK5OEekbo9HFJ3d7-11" value="ui service" style="rounded=1;whiteSpace=wrap;html=1;" vertex="1" parent="1">
          <mxGeometry x="470" y="620" width="120" height="60" as="geometry" />
        </mxCell>
        <mxCell id="bWQTvK5OEekbo9HFJ3d7-14" value="" style="edgeStyle=orthogonalEdgeStyle;rounded=0;orthogonalLoop=1;jettySize=auto;html=1;" edge="1" parent="1" source="bWQTvK5OEekbo9HFJ3d7-12" target="bWQTvK5OEekbo9HFJ3d7-13">
          <mxGeometry relative="1" as="geometry" />
        </mxCell>
        <mxCell id="bWQTvK5OEekbo9HFJ3d7-40" style="edgeStyle=orthogonalEdgeStyle;rounded=0;orthogonalLoop=1;jettySize=auto;html=1;entryX=0.5;entryY=0;entryDx=0;entryDy=0;entryPerimeter=0;" edge="1" parent="1" source="bWQTvK5OEekbo9HFJ3d7-12" target="bWQTvK5OEekbo9HFJ3d7-17">
          <mxGeometry relative="1" as="geometry" />
        </mxCell>
        <mxCell id="bWQTvK5OEekbo9HFJ3d7-12" value="app rule engine" style="rounded=1;whiteSpace=wrap;html=1;" vertex="1" parent="1">
          <mxGeometry x="20" y="450" width="120" height="60" as="geometry" />
        </mxCell>
        <mxCell id="bWQTvK5OEekbo9HFJ3d7-15" value="" style="edgeStyle=orthogonalEdgeStyle;rounded=0;orthogonalLoop=1;jettySize=auto;html=1;" edge="1" parent="1" source="bWQTvK5OEekbo9HFJ3d7-13" target="bWQTvK5OEekbo9HFJ3d7-6">
          <mxGeometry relative="1" as="geometry" />
        </mxCell>
        <mxCell id="bWQTvK5OEekbo9HFJ3d7-13" value="&lt;span&gt;app functions sdk&lt;/span&gt;" style="ellipse;whiteSpace=wrap;html=1;" vertex="1" parent="1">
          <mxGeometry x="20" y="560" width="120" height="80" as="geometry" />
        </mxCell>
        <mxCell id="bWQTvK5OEekbo9HFJ3d7-17" value="消息总线" style="shape=cylinder3;whiteSpace=wrap;html=1;boundedLbl=1;backgroundOutline=1;size=15;" vertex="1" parent="1">
          <mxGeometry x="200" y="500" width="60" height="80" as="geometry" />
        </mxCell>
        <mxCell id="bWQTvK5OEekbo9HFJ3d7-18" value="redis db" style="shape=cylinder3;whiteSpace=wrap;html=1;boundedLbl=1;backgroundOutline=1;size=15;" vertex="1" parent="1">
          <mxGeometry x="150" y="250" width="60" height="80" as="geometry" />
        </mxCell>
        <mxCell id="bWQTvK5OEekbo9HFJ3d7-19" value="通知" style="rounded=1;whiteSpace=wrap;html=1;" vertex="1" parent="1">
          <mxGeometry x="330" y="420" width="120" height="60" as="geometry" />
        </mxCell>
        <mxCell id="bWQTvK5OEekbo9HFJ3d7-20" value="调度" style="rounded=1;whiteSpace=wrap;html=1;" vertex="1" parent="1">
          <mxGeometry x="330" y="500" width="120" height="60" as="geometry" />
        </mxCell>
        <mxCell id="bWQTvK5OEekbo9HFJ3d7-24" value="" style="edgeStyle=orthogonalEdgeStyle;rounded=0;orthogonalLoop=1;jettySize=auto;html=1;" edge="1" parent="1" source="bWQTvK5OEekbo9HFJ3d7-22" target="bWQTvK5OEekbo9HFJ3d7-23">
          <mxGeometry relative="1" as="geometry" />
        </mxCell>
        <mxCell id="bWQTvK5OEekbo9HFJ3d7-26" style="edgeStyle=orthogonalEdgeStyle;rounded=0;orthogonalLoop=1;jettySize=auto;html=1;entryX=0;entryY=0;entryDx=0;entryDy=52.5;entryPerimeter=0;" edge="1" parent="1" source="bWQTvK5OEekbo9HFJ3d7-22" target="bWQTvK5OEekbo9HFJ3d7-25">
          <mxGeometry relative="1" as="geometry" />
        </mxCell>
        <mxCell id="bWQTvK5OEekbo9HFJ3d7-39" style="edgeStyle=orthogonalEdgeStyle;rounded=0;orthogonalLoop=1;jettySize=auto;html=1;entryX=1;entryY=0.5;entryDx=0;entryDy=0;" edge="1" parent="1" source="bWQTvK5OEekbo9HFJ3d7-22" target="bWQTvK5OEekbo9HFJ3d7-11">
          <mxGeometry relative="1" as="geometry" />
        </mxCell>
        <mxCell id="bWQTvK5OEekbo9HFJ3d7-22" value="consul" style="rhombus;whiteSpace=wrap;html=1;" vertex="1" parent="1">
          <mxGeometry x="630" y="340" width="80" height="80" as="geometry" />
        </mxCell>
        <mxCell id="bWQTvK5OEekbo9HFJ3d7-23" value="配置中心" style="shape=cylinder;whiteSpace=wrap;html=1;boundedLbl=1;backgroundOutline=1;" vertex="1" parent="1">
          <mxGeometry x="740" y="220" width="60" height="80" as="geometry" />
        </mxCell>
        <mxCell id="bWQTvK5OEekbo9HFJ3d7-25" value="注册中心" style="shape=cylinder3;whiteSpace=wrap;html=1;boundedLbl=1;backgroundOutline=1;size=15;" vertex="1" parent="1">
          <mxGeometry x="740" y="450" width="60" height="80" as="geometry" />
        </mxCell>
        <mxCell id="bWQTvK5OEekbo9HFJ3d7-29" value="core command" style="whiteSpace=wrap;html=1;rounded=1;" vertex="1" parent="1">
          <mxGeometry x="330" y="340" width="120" height="60" as="geometry" />
        </mxCell>
        <mxCell id="bWQTvK5OEekbo9HFJ3d7-35" value="" style="edgeStyle=orthogonalEdgeStyle;rounded=0;orthogonalLoop=1;jettySize=auto;html=1;" edge="1" parent="1" source="bWQTvK5OEekbo9HFJ3d7-34" target="bWQTvK5OEekbo9HFJ3d7-11">
          <mxGeometry relative="1" as="geometry" />
        </mxCell>
        <mxCell id="bWQTvK5OEekbo9HFJ3d7-34" value="ui" style="rounded=1;whiteSpace=wrap;html=1;" vertex="1" parent="1">
          <mxGeometry x="320" y="620" width="120" height="60" as="geometry" />
        </mxCell>
        <mxCell id="bWQTvK5OEekbo9HFJ3d7-43" value="" style="edgeStyle=orthogonalEdgeStyle;rounded=0;orthogonalLoop=1;jettySize=auto;html=1;" edge="1" parent="1" source="bWQTvK5OEekbo9HFJ3d7-41" target="bWQTvK5OEekbo9HFJ3d7-42">
          <mxGeometry relative="1" as="geometry" />
        </mxCell>
        <mxCell id="bWQTvK5OEekbo9HFJ3d7-41" value="消息总线" style="shape=cylinder3;whiteSpace=wrap;html=1;boundedLbl=1;backgroundOutline=1;size=15;fillColor=#d5e8d4;strokeColor=#82b366;" vertex="1" parent="1">
          <mxGeometry x="140" y="930" width="60" height="80" as="geometry" />
        </mxCell>
        <mxCell id="bWQTvK5OEekbo9HFJ3d7-47" value="" style="edgeStyle=orthogonalEdgeStyle;rounded=0;orthogonalLoop=1;jettySize=auto;html=1;" edge="1" parent="1" source="bWQTvK5OEekbo9HFJ3d7-42" target="bWQTvK5OEekbo9HFJ3d7-45">
          <mxGeometry relative="1" as="geometry" />
        </mxCell>
        <mxCell id="bWQTvK5OEekbo9HFJ3d7-48" style="edgeStyle=orthogonalEdgeStyle;rounded=0;orthogonalLoop=1;jettySize=auto;html=1;entryX=0.5;entryY=1;entryDx=0;entryDy=0;" edge="1" parent="1" source="bWQTvK5OEekbo9HFJ3d7-42" target="bWQTvK5OEekbo9HFJ3d7-44">
          <mxGeometry relative="1" as="geometry" />
        </mxCell>
        <mxCell id="bWQTvK5OEekbo9HFJ3d7-42" value="app service" style="rounded=1;whiteSpace=wrap;html=1;fillColor=#f8cecc;strokeColor=#b85450;" vertex="1" parent="1">
          <mxGeometry x="270" y="940" width="120" height="60" as="geometry" />
        </mxCell>
        <mxCell id="bWQTvK5OEekbo9HFJ3d7-51" value="" style="edgeStyle=orthogonalEdgeStyle;rounded=0;orthogonalLoop=1;jettySize=auto;html=1;" edge="1" parent="1" source="bWQTvK5OEekbo9HFJ3d7-44" target="bWQTvK5OEekbo9HFJ3d7-49">
          <mxGeometry relative="1" as="geometry" />
        </mxCell>
        <mxCell id="bWQTvK5OEekbo9HFJ3d7-54" style="edgeStyle=orthogonalEdgeStyle;rounded=0;orthogonalLoop=1;jettySize=auto;html=1;entryX=0;entryY=0.5;entryDx=0;entryDy=0;" edge="1" parent="1" source="bWQTvK5OEekbo9HFJ3d7-44" target="bWQTvK5OEekbo9HFJ3d7-50">
          <mxGeometry relative="1" as="geometry" />
        </mxCell>
        <mxCell id="bWQTvK5OEekbo9HFJ3d7-44" value="http" style="ellipse;whiteSpace=wrap;html=1;fillColor=#ffe6cc;strokeColor=#d79b00;" vertex="1" parent="1">
          <mxGeometry x="480" y="810" width="120" height="80" as="geometry" />
        </mxCell>
        <mxCell id="bWQTvK5OEekbo9HFJ3d7-52" value="" style="edgeStyle=orthogonalEdgeStyle;rounded=0;orthogonalLoop=1;jettySize=auto;html=1;" edge="1" parent="1" source="bWQTvK5OEekbo9HFJ3d7-45" target="bWQTvK5OEekbo9HFJ3d7-50">
          <mxGeometry relative="1" as="geometry" />
        </mxCell>
        <mxCell id="bWQTvK5OEekbo9HFJ3d7-53" style="edgeStyle=orthogonalEdgeStyle;rounded=0;orthogonalLoop=1;jettySize=auto;html=1;entryX=0;entryY=0.5;entryDx=0;entryDy=0;" edge="1" parent="1" source="bWQTvK5OEekbo9HFJ3d7-45" target="bWQTvK5OEekbo9HFJ3d7-49">
          <mxGeometry relative="1" as="geometry" />
        </mxCell>
        <mxCell id="bWQTvK5OEekbo9HFJ3d7-45" value="mqtt" style="ellipse;whiteSpace=wrap;html=1;fillColor=#fff2cc;strokeColor=#d6b656;" vertex="1" parent="1">
          <mxGeometry x="480" y="1000" width="120" height="80" as="geometry" />
        </mxCell>
        <mxCell id="bWQTvK5OEekbo9HFJ3d7-49" value="&lt;br&gt;云端系统" style="rounded=1;whiteSpace=wrap;html=1;fillColor=#e1d5e7;strokeColor=#9673a6;" vertex="1" parent="1">
          <mxGeometry x="690" y="860" width="120" height="60" as="geometry" />
        </mxCell>
        <mxCell id="bWQTvK5OEekbo9HFJ3d7-50" value="边缘系统" style="rounded=1;whiteSpace=wrap;html=1;fillColor=#e1d5e7;strokeColor=#9673a6;" vertex="1" parent="1">
          <mxGeometry x="690" y="990" width="120" height="60" as="geometry" />
        </mxCell>
      </root>
    </mxGraphModel>
  </diagram>
</mxfile>
